<svg width="17" height="17" viewBox="0 0 17 17" fill="none" xmlns="http://www.w3.org/2000/svg">
<path d="M11.1112 10.78C11.4525 10.8912 11.8193 10.7046 11.9305 10.3633C12.0417 10.0219 11.8552 9.65509 11.5138 9.5439L11.1112 10.78ZM8.5 9.24574H7.85C7.85 9.52715 8.03109 9.77661 8.29867 9.86377L8.5 9.24574ZM9.15 5.41472C9.15 5.05574 8.85898 4.76472 8.5 4.76472C8.14101 4.76472 7.85 5.05574 7.85 5.41472H9.15ZM11.5138 9.5439L8.70133 8.6277L8.29867 9.86377L11.1112 10.78L11.5138 9.5439ZM9.15 9.24574V5.41472H7.85V9.24574H9.15ZM15.35 8.32955C15.35 12.0046 12.2973 15.0091 8.5 15.0091V16.3091C12.987 16.3091 16.65 12.7505 16.65 8.32955H15.35ZM8.5 15.0091C4.70268 15.0091 1.65 12.0046 1.65 8.32955H0.35C0.35 12.7505 4.01305 16.3091 8.5 16.3091V15.0091ZM1.65 8.32955C1.65 4.65454 4.70268 1.65 8.5 1.65V0.35C4.01305 0.35 0.35 3.90856 0.35 8.32955H1.65ZM8.5 1.65C12.2973 1.65 15.35 4.65454 15.35 8.32955H16.65C16.65 3.90856 12.987 0.35 8.5 0.35V1.65Z" fill="#ABABAB"/>
</svg>
