<svg width="22" height="22" viewBox="0 0 22 22" fill="none" xmlns="http://www.w3.org/2000/svg">
<path d="M6.76376 9.34119L4.71642 11.3885C3.9518 12.1531 3.51209 13.1935 3.52013 14.2869C3.52816 15.3804 3.95825 16.4271 4.75915 17.2033C5.53528 18.0042 6.58223 18.4342 7.67547 18.4423C8.79364 18.4505 9.8094 18.0356 10.5741 17.2709L12.6214 15.2236M15.2365 12.6585L17.2838 10.6112C18.0484 9.84658 18.4881 8.8062 18.4801 7.71278C18.4721 6.61937 18.042 5.57264 17.2411 4.79647C16.4651 4.02053 15.4184 3.59042 14.325 3.58238C13.2315 3.57435 12.191 3.98909 11.4264 4.75374L9.37902 6.80107M7.89547 14.0498L14.0375 7.90777" stroke="#272727" stroke-width="2" stroke-linecap="round" stroke-linejoin="round"/>
</svg>
