<svg width="22" height="22" viewBox="0 0 22 22" fill="none" xmlns="http://www.w3.org/2000/svg">
<path d="M18.1968 5.5C15.0946 5.5 12.5798 8.01483 12.5798 11.117C12.5798 12.4913 13.3559 15.1281 14.6862 15.847M8.36702 5.5C5.26483 5.5 2.75 8.01483 2.75 11.117C2.75 12.4913 3.52616 15.1281 4.85638 15.847M19.25 13.5745C19.25 15.1256 17.9926 16.383 16.4415 16.383C14.8904 16.383 13.633 15.1256 13.633 13.5745C13.633 12.0234 14.8904 10.766 16.4415 10.766C17.9926 10.766 19.25 12.0234 19.25 13.5745ZM9.42021 13.5745C9.42021 15.1256 8.1628 16.383 6.6117 16.383C5.0606 16.383 3.80319 15.1256 3.80319 13.5745C3.80319 12.0234 5.0606 10.766 6.6117 10.766C8.1628 10.766 9.42021 12.0234 9.42021 13.5745Z" stroke="#272727" stroke-width="2" stroke-linecap="round" stroke-linejoin="round"/>
</svg>
