<svg width="22" height="22" viewBox="0 0 22 22" fill="none" xmlns="http://www.w3.org/2000/svg">
<path d="M3.07414 16.996C2.68362 17.3865 2.68362 18.0197 3.07414 18.4102C3.46467 18.8008 4.09783 18.8008 4.48836 18.4102L3.07414 16.996ZM7.90625 13.5781L8.61336 12.871C8.22283 12.4805 7.58967 12.4805 7.19914 12.871L7.90625 13.5781ZM9.96875 15.6406L9.26164 16.3477C9.65217 16.7383 10.2853 16.7383 10.6759 16.3477L9.96875 15.6406ZM14.6094 11L15.3165 10.2929C14.926 9.90237 14.2928 9.90237 13.9023 10.2929L14.6094 11ZM18.0273 15.8321C18.4178 16.2226 19.051 16.2226 19.4415 15.8321C19.832 15.4416 19.832 14.8084 19.4415 14.4179L18.0273 15.8321ZM4.48836 18.4102L8.61336 14.2852L7.19914 12.871L3.07414 16.996L4.48836 18.4102ZM7.19914 14.2852L9.26164 16.3477L10.6759 14.9335L8.61336 12.871L7.19914 14.2852ZM10.6759 16.3477L15.3165 11.7071L13.9023 10.2929L9.26164 14.9335L10.6759 16.3477ZM13.9023 11.7071L18.0273 15.8321L19.4415 14.4179L15.3165 10.2929L13.9023 11.7071ZM5.84375 3.75H16.1562V1.75H5.84375V3.75ZM18.25 5.84375V16.1562H20.25V5.84375H18.25ZM16.1562 18.25H5.84375V20.25H16.1562V18.25ZM3.75 16.1562V5.84375H1.75V16.1562H3.75ZM5.84375 18.25C4.6874 18.25 3.75 17.3126 3.75 16.1562H1.75C1.75 18.4172 3.58283 20.25 5.84375 20.25V18.25ZM18.25 16.1562C18.25 17.3126 17.3126 18.25 16.1562 18.25V20.25C18.4172 20.25 20.25 18.4172 20.25 16.1562H18.25ZM16.1562 3.75C17.3126 3.75 18.25 4.6874 18.25 5.84375H20.25C20.25 3.58283 18.4172 1.75 16.1562 1.75V3.75ZM5.84375 1.75C3.58283 1.75 1.75 3.58283 1.75 5.84375H3.75C3.75 4.6874 4.6874 3.75 5.84375 3.75V1.75ZM7.9375 7.39062C7.9375 7.69266 7.69266 7.9375 7.39062 7.9375V9.9375C8.79722 9.9375 9.9375 8.79722 9.9375 7.39062H7.9375ZM7.39062 7.9375C7.08859 7.9375 6.84375 7.69266 6.84375 7.39062H4.84375C4.84375 8.79722 5.98402 9.9375 7.39062 9.9375V7.9375ZM6.84375 7.39062C6.84375 7.08859 7.08859 6.84375 7.39062 6.84375V4.84375C5.98402 4.84375 4.84375 5.98402 4.84375 7.39062H6.84375ZM7.39062 6.84375C7.69266 6.84375 7.9375 7.08859 7.9375 7.39062H9.9375C9.9375 5.98402 8.79722 4.84375 7.39062 4.84375V6.84375Z" fill="#272727"/>
</svg>
