<svg width="22" height="20" viewBox="0 0 22 20" fill="none" xmlns="http://www.w3.org/2000/svg">
<path fill-rule="evenodd" clip-rule="evenodd" d="M2.45953 2.60371C3.39434 1.61891 4.66206 1.06567 5.98389 1.06567C7.30572 1.06567 8.57343 1.61891 9.50825 2.60371L10.9688 4.14156L12.4294 2.60371C12.8893 2.10199 13.4393 1.70179 14.0475 1.42648C14.6557 1.15117 15.3098 1.00626 15.9717 1.0002C16.6336 0.994137 17.29 1.12705 17.9027 1.39118C18.5153 1.65531 19.0719 2.04537 19.5399 2.5386C20.008 3.03183 20.3781 3.61835 20.6288 4.26394C20.8794 4.90953 21.0056 5.60126 20.9998 6.29876C20.9941 6.99627 20.8565 7.68558 20.5953 8.32648C20.334 8.96738 19.9543 9.54704 19.4782 10.0316L10.9688 19L2.45953 10.0316C1.52499 9.04651 1 7.7106 1 6.31767C1 4.92473 1.52499 3.58882 2.45953 2.60371V2.60371Z" stroke="#70A5D6" stroke-width="1.8" stroke-linejoin="round"/>
</svg>
