<svg width="120" height="28" viewBox="0 0 120 28" fill="none" xmlns="http://www.w3.org/2000/svg">
<path d="M10.0008 0H5.00049V4.66725H10.0008V0Z" fill="#F0CAD4"/>
<path d="M10.0008 14H5.00049V18.6661H10.0008V14Z" fill="#94B92C"/>
<path d="M19.9998 18.667H14.9995V23.3342H19.9998V18.667Z" fill="#B81211"/>
<path d="M5.00027 0H0V4.66725H5.00027V0Z" fill="#F0CAD4"/>
<path d="M5.00027 4.66699H0V9.33305H5.00027V4.66699Z" fill="#F0CAD4"/>
<path d="M5.00027 9.33301H0V14.0003H5.00027V9.33301Z" fill="#70A5D6"/>
<path d="M5.00027 14H0V18.6661H5.00027V14Z" fill="#70A5D6"/>
<path d="M5.00027 18.667H0V23.3342H5.00027V18.667Z" fill="#70A5D6"/>
<path d="M5.00027 23.333H0V28.0003H5.00027V23.333Z" fill="#70A5D6"/>
<path d="M14.9993 18.667H9.99902V23.3342H14.9993V18.667Z" fill="#B81211"/>
<path d="M19.9998 4.66699H14.9995V9.33305H19.9998V4.66699Z" fill="#FDAA2E"/>
<path d="M19.9998 9.33301H14.9995V14.0003H19.9998V9.33301Z" fill="#FDAA2E"/>
<path d="M19.9998 23.333H14.9995V28.0003H19.9998V23.333Z" fill="#B81211"/>
<path d="M14.9993 14H9.99902V18.6661H14.9993V14Z" fill="#94B92C"/>
<path d="M14.9993 0H9.99902V4.66725H14.9993V0Z" fill="#FDAA2E"/>
<path d="M19.9998 0H14.9995V4.66725H19.9998V0Z" fill="#FDAA2E"/>
<path d="M120 0V27.9999H115V18.6666H110V14.0006H115V0H120Z" fill="black"/>
<path d="M59.9992 9.33305V14.0003H54.999V27.9997H50V4.66699H54.999V9.33305H59.9992Z" fill="black"/>
<path d="M29.999 4.66725V9.33331H44.9998V14.0006H29.999V23.3327H44.9998V27.9999H25V0H44.9998V4.66725H29.999Z" fill="black"/>
<path d="M64.9991 0H54.9985V4.66605H64.9991V0Z" fill="black"/>
<path d="M69.9996 4.66699V27.9997H64.9993V18.6664H59.999V14.0003H64.9993V4.66699H69.9996Z" fill="black"/>
<path d="M80.0008 4.66699H75.0005V23.3336H80.0008V4.66699Z" fill="black"/>
<path d="M94.999 23.333H79.9995V27.9991H94.999V23.333Z" fill="black"/>
<path d="M94.999 0H79.9995V4.66605H94.999V0Z" fill="black"/>
<path d="M109.999 9.33331V14.0006H104.999V27.9999H99.9985V0H104.999V9.33331H109.999Z" fill="black"/>
</svg>
