<svg width="640" height="252" viewBox="0 0 640 252" fill="none" xmlns="http://www.w3.org/2000/svg">
<g clip-path="url(#clip0_1994_5018)">
<rect width="640" height="252" rx="10" fill="#F5F5F5"/>
<g clip-path="url(#clip1_1994_5018)">
<rect width="640" height="252" rx="10" fill="#F5F5F5"/>
<g clip-path="url(#clip2_1994_5018)">
<rect width="640" height="252" rx="10" transform="matrix(-1 0 0 1 640 0)" fill="#F4F7F9"/>
<path d="M93 -38C93 44.2904 159.71 111 242 111C324.29 111 391 44.2904 391 -38C391 -120.29 324.29 -187 242 -187C159.71 -187 93 -120.29 93 -38ZM387.473 -38C387.473 42.3427 322.343 107.473 242 107.473C161.657 107.473 96.5267 42.3427 96.5267 -38C96.5267 -118.343 161.657 -183.473 242 -183.473C322.343 -183.473 387.473 -118.343 387.473 -38Z" fill="#94B92C"/>
<circle cx="90" cy="90" r="90" transform="matrix(-1 0 0 1 480 36)" fill="#CAE18A"/>
<path d="M151 -89C151 -6.70958 217.71 60 300 60C382.29 60 449 -6.70958 449 -89C449 -171.29 382.29 -238 300 -238C217.71 -238 151 -171.29 151 -89ZM445.473 -89C445.473 -8.65732 380.343 56.4733 300 56.4733C219.657 56.4733 154.527 -8.65732 154.527 -89C154.527 -169.343 219.657 -234.473 300 -234.473C380.343 -234.473 445.473 -169.343 445.473 -89Z" fill="#F69C15"/>
<path d="M-31 -16C-31 62.4244 32.5756 126 111 126C189.424 126 253 62.4244 253 -16C253 -94.4244 189.424 -158 111 -158C32.5756 -158 -31 -94.4244 -31 -16ZM196.681 -16C196.681 31.3202 158.32 69.6808 111 69.6808C63.6798 69.6808 25.3192 31.3202 25.3192 -16C25.3192 -63.3202 63.6798 -101.681 111 -101.681C158.32 -101.681 196.681 -63.3202 196.681 -16Z" fill="#70A5D6"/>
<path d="M730 278H367.581V238.92H407.85V200.252H445.242V161.172H485.1V120.858H523.725V81.7781H563.583V42.2869H602.619V3.6184H730V278Z" fill="#FFEBF0"/>
<path d="M730 3.6184H602.619L544.271 -26C588.648 -26 663.433 -26 730 -26V3.6184Z" fill="#70A5D6"/>
<path d="M602.619 42.2869H563.583L503.18 11.4344H544.271L602.619 42.2869Z" fill="#70A5D6"/>
<path d="M563.583 81.7781H523.725L464.966 50.9256H503.18L563.583 81.7781Z" fill="#70A5D6"/>
<path d="M523.725 120.858H485.1L425.519 90.0054H464.966L523.725 120.858Z" fill="#70A5D6"/>
<path d="M485.1 161.172H445.242L387.305 131.142H425.519L485.1 161.172Z" fill="#70A5D6"/>
<path d="M445.242 200.252H407.85L347.447 170.222H387.305L445.242 200.252Z" fill="#70A5D6"/>
<path d="M407.85 238.92H367.581L308 208.89H347.447L407.85 238.92Z" fill="#70A5D6"/>
<path d="M367.581 238.92V278C360.678 274.709 324.984 274.231 308 265.592V208.89L367.581 238.92Z" fill="#398DDB"/>
<path d="M407.85 200.252V238.92L347.447 208.89V170.222L407.85 200.252Z" fill="#398DDB"/>
<path d="M445.242 161.172V200.252L387.305 170.222V131.142L445.242 161.172Z" fill="#398DDB"/>
<path d="M485.1 120.858V161.172L425.519 131.142V90.0054L485.1 120.858Z" fill="#398DDB"/>
<path d="M523.725 81.7781V120.858L464.966 90.0054V50.9256L523.725 81.7781Z" fill="#398DDB"/>
<path d="M563.583 42.2869V81.7781L503.18 50.9256V11.4344L563.583 42.2869Z" fill="#398DDB"/>
<path d="M602.619 3.6184V42.2869L544.271 11.4344V-26L602.619 3.6184Z" fill="#398DDB"/>
<path d="M-17 367H333.395V329.206H294.462V291.809H258.311V254.015H219.775V215.027H182.431V177.233H143.896V139.041H106.155V101.644H-17V367Z" fill="white"/>
<path d="M-17 101.644H106.155L162.568 73C119.662 73 47.3583 73 -17 73V101.644Z" fill="#70A5D6"/>
<path d="M106.155 139.041H143.896L202.295 109.203H162.568L106.155 139.041Z" fill="#70A5D6"/>
<path d="M143.896 177.233H182.431L239.241 147.395H202.295L143.896 177.233Z" fill="#70A5D6"/>
<path d="M182.431 215.027H219.775L277.38 185.189H239.241L182.431 215.027Z" fill="#70A5D6"/>
<path d="M219.775 254.015H258.311L314.326 224.973H277.38L219.775 254.015Z" fill="#70A5D6"/>
<path d="M258.311 291.809H294.462L352.862 262.767H314.326L258.311 291.809Z" fill="#70A5D6"/>
<path d="M294.462 329.206H333.395L391 300.164H352.862L294.462 329.206Z" fill="#70A5D6"/>
<path d="M333.395 329.206V367C340.07 363.817 374.579 346.313 391 337.958V300.164L333.395 329.206Z" fill="#398DDB"/>
<path d="M294.462 291.809V329.206L352.862 300.164V262.767L294.462 291.809Z" fill="#398DDB"/>
<path d="M258.311 254.015V291.809L314.326 262.767V224.973L258.311 254.015Z" fill="#398DDB"/>
<path d="M219.775 215.027V254.015L277.38 224.973V185.189L219.775 215.027Z" fill="#398DDB"/>
<path d="M182.431 177.233V215.027L239.241 185.189V147.395L182.431 177.233Z" fill="#398DDB"/>
<path d="M143.896 139.041V177.233L202.295 147.395V109.203L143.896 139.041Z" fill="#398DDB"/>
<path d="M106.155 101.644V139.041L162.568 109.203V73L106.155 101.644Z" fill="#398DDB"/>
<path d="M-24 373.356H326.395V335.562H287.463V298.165H251.311V260.371H212.775V221.383H175.431V183.589H136.896V145.396H99.1548V108H-24V373.356Z" fill="#FDAA2E"/>
<path d="M469 303C469 385.29 535.71 452 618 452C700.29 452 767 385.29 767 303C767 220.71 700.29 154 618 154C535.71 154 469 220.71 469 303ZM763.473 303C763.473 383.343 698.343 448.473 618 448.473C537.657 448.473 472.527 383.343 472.527 303C472.527 222.657 537.657 157.527 618 157.527C698.343 157.527 763.473 222.657 763.473 303Z" fill="#F69C15"/>
<path d="M529 275C529 357.29 595.71 424 678 424C760.29 424 827 357.29 827 275C827 192.71 760.29 126 678 126C595.71 126 529 192.71 529 275ZM823.473 275C823.473 355.343 758.343 420.473 678 420.473C597.657 420.473 532.527 355.343 532.527 275C532.527 194.657 597.657 129.527 678 129.527C758.343 129.527 823.473 194.657 823.473 275Z" fill="#CD0705"/>
</g>
</g>
</g>
<defs>
<clipPath id="clip0_1994_5018">
<rect width="640" height="252" rx="10" fill="white"/>
</clipPath>
<clipPath id="clip1_1994_5018">
<rect width="640" height="252" rx="10" fill="white"/>
</clipPath>
<clipPath id="clip2_1994_5018">
<rect width="640" height="252" rx="10" transform="matrix(-1 0 0 1 640 0)" fill="white"/>
</clipPath>
</defs>
</svg>
