<svg class="hidden"  xmlns="http://www.w3.org/2000/svg">
<symbol viewBox="0 0 30 30" id="profile-icon">
<path d="M14.8596 15.0919L14.8686 15.0922L14.8772 15.0893C14.8817 15.0878 14.8933 15.0856 14.9137 15.0839C14.9331 15.0823 14.9574 15.0814 14.9852 15.0814C15.041 15.0814 15.1091 15.0848 15.1774 15.0917L15.1773 15.0922L15.1849 15.0918C17.0814 14.9928 18.567 13.4359 18.5812 11.512V11.5116C18.5812 9.54463 16.9822 7.93141 15.0009 7.93141C13.0197 7.93141 11.4207 9.54462 11.4207 11.5116C11.4207 13.4501 12.9349 15.0211 14.8596 15.0919ZM15.1684 17.0849H15.1682H15.1681H15.1679H15.1677H15.1676H15.1674H15.1672H15.1671H15.1669H15.1667H15.1666H15.1664H15.1662H15.1661H15.1659H15.1657H15.1656H15.1654H15.1652H15.1651H15.1649H15.1647H15.1645H15.1644H15.1642H15.164H15.1639H15.1637H15.1635H15.1633H15.1632H15.163H15.1628H15.1627H15.1625H15.1623H15.1621H15.162H15.1618H15.1616H15.1614H15.1613H15.1611H15.1609H15.1607H15.1605H15.1604H15.1602H15.16H15.1598H15.1597H15.1595H15.1593H15.1591H15.1589H15.1588H15.1586H15.1584H15.1582H15.158H15.1579H15.1577H15.1575H15.1573H15.1571H15.157H15.1568H15.1566H15.1564H15.1562H15.156H15.1559H15.1557H15.1555H15.1553H15.1551H15.1549H15.1548H15.1546H15.1544H15.1542H15.154H15.1538H15.1536H15.1535H15.1533H15.1531H15.1529H15.1527H15.1525H15.1523H15.1522H15.152H15.1518H15.1516H15.1514H15.1512H15.151H15.1508H15.1506H15.1505H15.1503H15.1501H15.1499H15.1497H15.1495H15.1493H15.1491H15.1489H15.1487H15.1486H15.1484H15.1482H15.148H15.1478H15.1476H15.1474H15.1472H15.147H15.1468H15.1466H15.1464H15.1462H15.1461H15.1459H15.1457H15.1455H15.1453H15.1451H15.1449H15.1447H15.1445H15.1443H15.1441H15.1439H15.1437H15.1435H15.1433H15.1431H15.1429H15.1427H15.1425H15.1423H15.1421H15.142H15.1418H15.1416H15.1414H15.1412H15.141H15.1408H15.1406H15.1404H15.1402H15.14H15.1398H15.1396H15.1394H15.1392H15.139H15.1388H15.1386H15.1384H15.1382H15.138H15.1378H15.1376H15.1374H15.1372H15.137H15.1368H15.1366H15.1364H15.1362H15.136H15.1358H15.1356H15.1354H15.1352H15.135H15.1348H15.1346H15.1344H15.1342H15.134H15.1338H15.1336H15.1334H15.1332H15.133H15.1328H15.1326H15.1324H15.1322H15.132H15.1318H15.1316H15.1314H15.1312H15.131H15.1308H15.1306H15.1304H15.1301H15.1299H15.1297H15.1295H15.1293H15.1291H15.1289H15.1287H15.1285H15.1283H15.1281H15.1279H15.1277H15.1275H15.1273H15.1271H15.1269H15.1267H15.1265H15.1263H15.1261H15.1259H15.1257H15.1255H15.1253H15.1251H15.1249H15.1247H15.1245H15.1242H15.124H15.1238H15.1236H15.1234H15.1232H15.123H15.1228H15.1226H15.1224H15.1222H15.122H15.1218H15.1216H15.1214H15.1212H15.121H15.1208H15.1206H15.1204H15.1202H15.12H15.1198H15.1195H15.1193H15.1191H15.1189H15.1187H15.1185H15.1183H15.1181H15.1179H15.1177H15.1175H15.1173H15.1171H15.1169H15.1167H15.1165H15.1163H15.1161H15.1159H15.1157H15.1155H15.1153H15.1151H15.1149H15.1146H15.1144H15.1142H15.114H15.1138H15.1136H15.1134H15.1132H15.113H15.1128H15.1126H15.1124H15.1122H15.112H15.1118H15.1116H15.1114H15.1112H15.111H15.1108H15.1106H15.1104H15.1102H15.11H15.1098H15.1096H15.1094H15.1092H15.109H15.1087H15.1085H15.1083H15.1081H15.1079H15.1077H15.1075H15.1073H15.1071H15.1069H15.1067H15.1065H15.1063H15.1061H15.1059H15.1057H15.1055H15.1053H15.1051H15.1049H15.1047H15.1045H15.1043H15.1041H15.1039H15.1037H15.1035H15.1033H15.1031H15.1029H15.1027H15.1025H15.1023H15.1021H15.1019H15.1017H15.1015H15.1013H15.1011H15.1009H15.1007H15.1005H15.1003H15.1001H15.0999H15.0997H15.0995H15.0993H15.0991H15.0989H15.0987H15.0985H15.0983H15.0981H15.0979H15.0977H15.0975H15.0973H15.0971H15.0969H15.0968H15.0966H15.0964H15.0962H15.096H15.0958H15.0956H15.0954H15.0952H15.095H15.0948H15.0946H15.0944H15.0942H15.094H15.0938H15.0936H15.0934H15.0932H15.093H15.0929H15.0927H15.0925H15.0923H15.0921H15.0919H15.0917H15.0915H15.0913H15.0911H15.0909H15.0907H15.0905H15.0904H15.0902H15.09H15.0898H15.0896H15.0894H15.0892H15.089H15.0888H15.0886H15.0885H15.0883H15.0881H15.0879H15.0877H15.0875H15.0873H15.0871H15.0869H15.0868H15.0866H15.0864H15.0862H15.086H15.0858H15.0856H15.0855H15.0853H15.0851H15.0849H15.0847H15.0845H15.0843H15.0842H15.084H15.0838H15.0836H15.0834H15.0832H15.0831H15.0829H15.0827H15.0825H15.0823H15.0821H15.082H15.0818H15.0816H15.0814H15.0812H15.0811H15.0809H15.0807H15.0805H15.0803H15.0802H15.08H15.0798H15.0796H15.0794H15.0793H15.0791H15.0789H15.0787H15.0786H15.0784H15.0782H15.078H15.0778H15.0777H15.0775H15.0773H15.0771H15.077H15.0768H15.0766H15.0764H15.0763H15.0761H15.0759H15.0758H15.0756H15.0754H15.0752H15.0751H15.0749H15.0747H15.0746H15.0744H15.0742H15.074H15.0739H15.0737H15.0735H15.0734H15.0732H15.073H15.0729H15.0727H15.0725H15.0724H15.0722H15.072H15.0719H15.0717H15.0715H15.0714H15.0712H15.071H15.0709H15.0707H15.0705H15.0702H15.07H15.0697H15.0695H15.0692H15.069H15.0687H15.0685H15.0682H15.068H15.0677H15.0675H15.0672H15.067H15.0667H15.0665H15.0662H15.066H15.0657H15.0655H15.0652H15.065H15.0647H15.0645H15.0642H15.064H15.0637H15.0635H15.0632H15.063H15.0627H15.0625H15.0622H15.0619H15.0617H15.0614H15.0612H15.0609H15.0607H15.0604H15.0601H15.0599H15.0596H15.0594H15.0591H15.0589H15.0586H15.0583H15.0581H15.0578H15.0576H15.0573H15.057H15.0568H15.0565H15.0563H15.056H15.0557H15.0555H15.0552H15.0549H15.0547H15.0544H15.0542H15.0539H15.0536H15.0534H15.0531H15.0528H15.0526H15.0523H15.052H15.0518H15.0515H15.0512H15.051H15.0507H15.0504H15.0502H15.0499H15.0496H15.0494H15.0491H15.0488H15.0486H15.0483H15.048H15.0478H15.0475H15.0472H15.047H15.0467H15.0464H15.0461H15.0459H15.0456H15.0453H15.0451H15.0448H15.0445H15.0443H15.044H15.0437H15.0434H15.0432H15.0429H15.0426H15.0423H15.0421H15.0418H15.0415H15.0413H15.041H15.0407H15.0404H15.0402H15.0399H15.0396H15.0393H15.0391H15.0388H15.0385H15.0382H15.038H15.0377H15.0374H15.0371H15.0369H15.0366H15.0363H15.036H15.0358H15.0355H15.0352H15.0349H15.0346H15.0344H15.0341H15.0338H15.0335H15.0333H15.033H15.0327H15.0324H15.0321H15.0319H15.0316H15.0313H15.031H15.0308H15.0305H15.0302H15.0299H15.0296H15.0294H15.0291H15.0288H15.0285H15.0282H15.028H15.0277H15.0274H15.0271H15.0268H15.0265H15.0263H15.026H15.0257H15.0254H15.0251H15.0249H15.0246H15.0243H15.024H15.0237H15.0234H15.0232H15.0229H15.0226H15.0223H15.022H15.0218H15.0215H15.0212H15.0209H15.0206H15.0203H15.0201H15.0198H15.0195H15.0192H15.0189H15.0186H15.0184H15.0181H15.0178H15.0175H15.0172H15.0169H15.0166H15.0164H15.0161H15.0158H15.0155H15.0152H15.0149H15.0147H15.0144H15.0141H15.0138H15.0135H15.0132H15.0129H15.0127H15.0124H15.0121H15.0118H15.0115H15.0112H15.011H15.0107H15.0104H15.0101H15.0098H15.0095H15.0092H15.009H15.0087H15.0084H15.0081H15.0078H15.0075H15.0072H15.007H15.0067H15.0064H15.0061H15.0058H15.0055H15.0052H15.005H15.0047H15.0044H15.0041H15.0038H15.0035H15.0032H15.0029H15.0027H15.0024H15.0021H15.0018H15.0015H15.0012H15.0009H15.0007H15.0004H15.0001H14.9998H14.9995H14.9992H14.9989H14.9987H14.9984H14.9981H14.9978H14.9975H14.9972H14.9969H14.9967H14.9964H14.9961H14.9958H14.9955H14.9952H14.9949H14.9947H14.9944H14.9941H14.9938H14.9935H14.9932H14.9929H14.9927H14.9924H14.9921H14.9918H14.9915H14.9912H14.9909H14.9907H14.9904H14.9901H14.9898H14.9895H14.9892H14.9889H14.9887H14.9884H14.9881H14.9878H14.9875H14.9872H14.9869H14.9867H14.9864H14.9861H14.9858H14.9855H14.9852H14.985H14.9847H14.9844H14.9841H14.9838H14.9835H14.9833H14.983H14.9827H14.9824H14.9821H14.9818H14.9816H14.9813H14.981H14.9807H14.9804H14.9801H14.9799H14.9796H14.9793H14.979H14.9787H14.9784H14.9782H14.9779H14.9776H14.9773H14.977H14.9767H14.9765H14.9762H14.9759H14.9756H14.9753H14.9751H14.9748H14.9745H14.9742H14.9739H14.9737H14.9734H14.9731H14.9728H14.9725H14.9723H14.972H14.9717H14.9714H14.9711H14.9709H14.9706H14.9703H14.97H14.9697H14.9695H14.9692H14.9689H14.9686H14.9684H14.9681H14.9678H14.9675H14.9672H14.967H14.9667H14.9664H14.9661H14.9659H14.9656H14.9653H14.965H14.9648H14.9645H14.9642H14.9639H14.9637H14.9634H14.9631H14.9628H14.9626H14.9623H14.962H14.9617H14.9615H14.9612H14.9609H14.9606H14.9604H14.9601H14.9598H14.9595H14.9593H14.959H14.9587H14.9585H14.9582H14.9579H14.9576H14.9574H14.9571H14.9568H14.9566H14.9563H14.956H14.9557H14.9555H14.9552H14.9549H14.9547H14.9544H14.9541H14.9539H14.9536H14.9533H14.9531H14.9528H14.9525H14.9522H14.952H14.9517H14.9514H14.9512H14.9509H14.9506H14.9504H14.9501H14.9499H14.9496H14.9493H14.9491H14.9488H14.9485H14.9483H14.948H14.9477H14.9475H14.9472H14.9469H14.9467H14.9464H14.9462H14.9459H14.9456H14.9454H14.9451H14.9449H14.9446H14.9443H14.9441H14.9438H14.9436H14.9433H14.943H14.9428H14.9425H14.9423H14.942H14.9417H14.9415H14.9412H14.941H14.9407H14.9405H14.9402H14.9399H14.9397H14.9394H14.9392H14.9389H14.9387H14.9384H14.9382H14.9379H14.9377H14.9374H14.9372H14.9369H14.9366H14.9364H14.9361H14.9359H14.9356H14.9354H14.9351H14.9349H14.9346H14.9344H14.9341H14.9339H14.9336H14.9334H14.9331H14.9329H14.9327H14.9324H14.9322H14.9319C11.7914 16.9877 9.4416 14.5398 9.4416 11.5256C9.4416 8.45554 11.9448 5.95234 15.0149 5.95234C18.085 5.95234 20.5881 8.45553 20.5882 11.5256C20.5742 14.5543 18.2098 16.9877 15.2094 17.0849H15.2093H15.2091H15.209H15.2088H15.2086H15.2085H15.2083H15.2082H15.208H15.2079H15.2077H15.2076H15.2074H15.2073H15.2071H15.207H15.2068H15.2067H15.2065H15.2064H15.2062H15.2061H15.2059H15.2058H15.2056H15.2055H15.2053H15.2052H15.205H15.2049H15.2048H15.2046H15.2045H15.2043H15.2042H15.2041H15.2039H15.2038H15.2036H15.2035H15.2034H15.2032H15.2031H15.203H15.2028H15.2027H15.2026H15.2024H15.2023H15.2022H15.202H15.2019H15.2018H15.2016H15.2015H15.2014H15.2013H15.2011H15.201H15.2009H15.2008H15.2006H15.2005H15.2004H15.2003H15.2001H15.2H15.1999H15.1998H15.1996H15.1995H15.1994H15.1993H15.1992H15.1991H15.1989H15.1988H15.1987H15.1986H15.1985H15.1983H15.1982H15.1981H15.198H15.1979H15.1978H15.1977H15.1976H15.1974H15.1973H15.1972H15.1971H15.197H15.1969H15.1968H15.1967H15.1966H15.1965H15.1963H15.1962H15.1961H15.196H15.1959H15.1958H15.1957H15.1956H15.1955H15.1954H15.1953H15.1952H15.1951H15.195H15.1949H15.1948H15.1947H15.1946H15.1945H15.1944H15.1943H15.1942H15.1941H15.194H15.1939H15.1938H15.1937H15.1936H15.1935H15.1934H15.1933H15.1932H15.1931H15.193H15.1929H15.1929H15.1928H15.1927H15.1926H15.1925H15.1924H15.1923H15.1922H15.1921H15.192H15.1919H15.1919H15.1918H15.1917H15.1916H15.1915H15.1914H15.1913H15.1912H15.1912H15.1911H15.191H15.1909H15.1908H15.1907H15.1906H15.1906H15.1905H15.1904H15.1903H15.1902H15.1901H15.1901H15.19H15.1899H15.1898H15.1897H15.1897H15.1896H15.1895H15.1894H15.1893H15.1893H15.1892H15.1891H15.189H15.189H15.1889H15.1888H15.1887H15.1886H15.1886H15.1885H15.1884H15.1883H15.1883H15.1882H15.1881H15.188H15.188H15.1879H15.1878H15.1878H15.1877H15.1876H15.1875H15.1875H15.1874H15.1873H15.1872H15.1872H15.1871H15.187H15.187H15.1869H15.1868H15.1868H15.1867H15.1866H15.1865H15.1865H15.1864H15.1863H15.1863H15.1862H15.1861H15.1861H15.186H15.1859H15.1859H15.1858H15.1857H15.1857H15.1856H15.1855H15.1855H15.1854H15.1853H15.1853H15.1852H15.1852H15.1851H15.185H15.185H15.1849H15.1848H15.1848H15.1847H15.1846H15.1846H15.1845H15.1845H15.1844H15.1843H15.1843H15.1842H15.1841H15.1841H15.184H15.184H15.1839H15.1838H15.1838H15.1837H15.1837H15.1836H15.1835H15.1835H15.1834H15.1834H15.1833H15.1832H15.1832H15.1831H15.1831H15.183H15.1829H15.1829H15.1828H15.1828H15.1827H15.1827H15.1826H15.1825H15.1825H15.1824H15.1824H15.1823H15.1823H15.1822H15.1821H15.1821H15.182H15.182H15.1819H15.1819H15.1818H15.1817H15.1817H15.1816H15.1816H15.1815H15.1815H15.1814H15.1813H15.1813H15.1812H15.1812H15.1811H15.1811H15.181H15.181H15.1809H15.1808H15.1808H15.1807H15.1807H15.1806H15.1806H15.1805H15.1805H15.1804H15.1804H15.1803H15.1802H15.1802H15.1801H15.1801H15.18H15.18H15.1799H15.1799H15.1798H15.1797H15.1797H15.1796H15.1796H15.1795H15.1795H15.1794H15.1794H15.1793H15.1793H15.1792H15.1791H15.1791H15.179H15.179H15.1789H15.1789H15.1788H15.1788H15.1787H15.1787H15.1786H15.1785H15.1785H15.1784H15.1784H15.1783H15.1783H15.1782H15.1782H15.1781H15.1781H15.178H15.1779H15.1779H15.1778H15.1778H15.1777H15.1777H15.1776H15.1776H15.1775H15.1774H15.1774H15.1773H15.1773H15.1772H15.1772H15.1771H15.1771H15.177H15.1769H15.1769H15.1768H15.1768H15.1767H15.1767H15.1766H15.1766H15.1765H15.1764H15.1764H15.1763H15.1763H15.1762H15.1762H15.1761H15.176H15.176H15.1759H15.1759H15.1758H15.1757H15.1757H15.1756H15.1756H15.1755H15.1755H15.1754H15.1753H15.1753H15.1752H15.1752H15.1751H15.175H15.175H15.1749H15.1749H15.1748H15.1747H15.1747H15.1746H15.1746H15.1745H15.1744H15.1744H15.1743H15.1743H15.1742H15.1741H15.1741H15.174H15.1739H15.1739H15.1738H15.1738H15.1737H15.1736H15.1736H15.1735H15.1734H15.1734H15.1733H15.1732H15.1732H15.1731H15.173H15.173H15.1729H15.1729H15.1728H15.1727H15.1727H15.1726H15.1725H15.1725H15.1724H15.1723H15.1723H15.1722H15.1721H15.172H15.172H15.1719H15.1718H15.1718H15.1717H15.1716H15.1716H15.1715H15.1714H15.1714H15.1713H15.1712H15.1711H15.1711H15.171H15.1709H15.1708H15.1708H15.1707H15.1706H15.1706H15.1705H15.1704H15.1703H15.1703H15.1702H15.1701H15.17H15.17H15.1699H15.1698H15.1697H15.1697H15.1696H15.1695H15.1694H15.1693H15.1693H15.1692H15.1691H15.169H15.169H15.1689H15.1688H15.1687H15.1686H15.1685H15.1685H15.1684Z" fill="#D2D2D2" stroke="#D2D2D2" stroke-width="0.1"/>
<path d="M4.91822 26.0285L4.9177 26.028C4.67991 25.8167 4.57282 25.4982 4.59936 25.1912C4.77897 23.5488 5.80088 22.0122 7.50756 20.8744C9.57677 19.4996 12.291 18.8107 15.006 18.8107C17.721 18.8107 20.4316 19.4996 22.4938 20.8744C24.201 22.0264 25.2228 23.5494 25.4022 25.1918L25.4023 25.1925C25.4421 25.5106 25.323 25.8154 25.0838 26.028L25.0833 26.0285C22.3157 28.5596 18.7417 29.9503 15.0007 29.9503C11.2598 29.9503 7.68578 28.5596 4.91822 26.0285ZM6.69234 24.8931L6.68306 24.9245L6.70819 24.9456C9.03348 26.8927 11.9611 27.9573 15.0007 27.9573C18.0404 27.9573 20.968 26.8927 23.2933 24.9456L23.3184 24.9245L23.3092 24.8931C23.0537 24.0275 22.3746 23.1957 21.3776 22.5216L21.3773 22.5215C19.6509 21.3705 17.3278 20.7968 15.0042 20.7968C12.6807 20.7968 10.3507 21.3705 8.61039 22.5214L8.60996 22.5216C7.61258 23.1959 6.94766 24.0278 6.69234 24.8931Z" fill="#D2D2D2" stroke="#D2D2D2" stroke-width="0.1"/>
<path d="M15 29.95C6.7532 29.95 0.05 23.2468 0.05 15C0.05 6.7532 6.7532 0.05 15 0.05C23.2468 0.05 29.95 6.7532 29.95 15C29.95 23.2468 23.2468 29.95 15 29.95ZM15 2.04302C7.85611 2.04302 2.04302 7.85611 2.04302 15C2.04302 22.1439 7.85611 27.957 15 27.957C22.1439 27.957 27.957 22.1439 27.957 15C27.957 7.85611 22.1439 2.04302 15 2.04302Z" fill="#D2D2D2" stroke="#D2D2D2" stroke-width="0.1"/>
</symbol>
</svg>