<svg width="22" height="22" viewBox="0 0 22 22" fill="none" xmlns="http://www.w3.org/2000/svg">
<path d="M2.2002 19.8002L2.20057 16.4998C2.20077 14.6774 3.67817 13.2002 5.50057 13.2002H11.5502M15.4002 13.9073L17.6002 11.5502M17.6002 11.5502L19.8002 13.9073M17.6002 11.5502V17.6002M15.9502 2.2002C17.2851 2.94845 18.1502 4.148 18.1502 5.5002C18.1502 6.85239 17.2851 8.05194 15.9502 8.80019M13.2002 5.5002C13.2002 7.32273 11.7227 8.80019 9.90019 8.80019C8.07765 8.80019 6.60019 7.32273 6.60019 5.5002C6.60019 3.67766 8.07765 2.2002 9.90019 2.2002C11.7227 2.2002 13.2002 3.67766 13.2002 5.5002Z" stroke="#FDAA2E" stroke-width="1.8" stroke-linecap="round" stroke-linejoin="round"/>
</svg>
